<svg xmlns="http://www.w3.org/2000/svg" viewBox="0 0 1179 268">
<style>.st0{fill:#00ff5a;}</style>
<g><g>
<path class="st0" d="M46.7,217.3H3.2V42.7h43.4V217.3z M408.4,173.7H270c3,29.5,18.7,49.1,49.3,49.1c20.9,0,36.4-9.4,44.8-27.3
  l42.1,12.8c-14.9,35.2-48.3,54.5-84.4,54.5c-59,0-97.6-41.4-97.6-98.8c0-65.3,41.2-103.1,95.1-103.1
  C381.8,60.9,413,108.7,408.4,173.7z M365.1,141.5c-3.3-27.7-15.7-43.2-44-43.2c-28.3,0-44.9,14-50.1,43.2H365.1z M952.2,173.7
  H813.8c3,29.5,18.7,49.1,49.3,49.1c20.9,0,36.4-9.4,44.8-27.3l42.1,12.8c-14.9,35.2-48.3,54.5-84.4,54.5
  c-59,0-97.6-41.4-97.6-98.8c0-65.3,41.2-103.1,95.1-103.1C925.6,60.9,956.8,108.7,952.2,173.7z M908.9,141.5
  c-3.3-27.7-15.7-43.2-44-43.2c-28.3,0-44.9,14-50.1,43.2H908.9z M427.5,257.5h42.7V2.5h-42.7V257.5z M501.2,257.5h42.6V66.2h-42.6
  V257.5z M501.2,47.2h42.6V2.5h-42.6V47.2z M675.4,60.9c-25.1,0-46.1,9.7-62.5,31.1V66.2h-38.1v191.2H618v-98.2
  c0-32.7,12.1-58.3,44.8-58.3c35.4,0,44.6,29.4,44.6,64.5v92h43.2V150.7C750.6,104.2,732,60.9,675.4,60.9z M1134.2,140.1v117.4
  h-37.4v-25.8c-17.3,22.8-38.6,31.1-67.2,31.1c-41.2,0-64.1-26-64.1-57.7c0-29.4,15-47.6,43.6-57.2c24.9-7.9,56.4-11.5,83.2-15.5
  c-1.8-24.1-15.1-32.2-39.1-32.2c-15.3,0-35.9,6.3-41.8,26.7l-39-12.2c4.8-16.1,13.7-29.1,27-38.9c13.3-9.8,31.2-14.7,53.7-14.7
  c60.4,0,77.6,33.5,79.9,56.3C1133.9,124.2,1134.2,131.8,1134.2,140.1z M1091.9,167.3c-14.1,2.2-28.4,4.5-43.7,7.5
  c-18.9,3.8-40.7,10.3-40.7,29.6c0,12.9,9.4,24.3,30.8,24.3c31.5,0,52-21.1,53.2-50.4C1091.7,174.2,1091.9,167.3,1091.9,167.3z
   M1091.9,166.6C1091.9,166.3,1091.9,166.2,1091.9,166.6L1091.9,166.6z M1091.9,167l0-0.4L1091.9,167z M97.2,2.5H46.7v40.2
  c0,0,22.6-0.1,37.9,0c12.3,0.1,19.4,0,28.1,1.9c37.4,7.1,51.6,47.1,51.6,85.4s-14.2,78.2-51.6,85.4c-8.6,1.9-15.8,1.9-28.1,1.9
  c-15.4,0.1-37.9,0-37.9,0v40.2h50.5c82.7,0,112.2-67.8,112.2-127.5S179.8,2.5,97.2,2.5z"/>
</g></g>
</svg>
